/* XPM */
static char *aaelb_cffc8[] = {
/* columns rows colors chars-per-pixel */
"32 32 118 2 ",
"   c None",
".  c #0E1312",
"X  c #121714",
"o  c #141814",
"O  c #1B1A14",
"+  c #241E14",
"@  c #281F13",
"#  c #262016",
"$  c #2E2417",
"%  c #2D2718",
"&  c #322515",
"*  c #392714",
"=  c #3D2A15",
"-  c #322618",
";  c #362918",
":  c #3A2B19",
">  c #3F301B",
",  c #3F381C",
"<  c #482F16",
"1  c #4C3117",
"2  c #43331C",
"3  c #4D341A",
"4  c #53361A",
"5  c #543B1D",
"6  c #5D3B1B",
"7  c #633F1D",
"8  c #64401D",
"9  c #6C441F",
"0  c #73471E",
"q  c #76481F",
"w  c #794A1F",
"e  c #4A4421",
"r  c #4C4A26",
"t  c #4C4C29",
"y  c #664B20",
"u  c #734920",
"i  c #7A4C21",
"p  c #6E5022",
"a  c #7D5224",
"s  c #814E21",
"d  c #884F20",
"f  c #855122",
"g  c #8A5423",
"h  c #895926",
"j  c #925623",
"k  c #955924",
"l  c #9B5B25",
"z  c #A05D26",
"x  c #936227",
"c  c #976428",
"v  c #9B642A",
"b  c #9D682D",
"n  c #A4662A",
"m  c #AB6529",
"M  c #A56D2F",
"N  c #AE682A",
"B  c #AB702F",
"V  c #A37E2F",
"C  c #BB762F",
"Z  c #A46E30",
"A  c #A57030",
"S  c #BE7630",
"D  c #BE7A32",
"F  c #C17B32",
"G  c #9D802E",
"H  c #BA8537",
"J  c #BD8638",
"K  c #BA9033",
"L  c #BDA63E",
"P  c #C68632",
"I  c #CF8637",
"U  c #C38D3B",
"Y  c #D18C37",
"T  c #D38E38",
"R  c #CB9033",
"E  c #C89835",
"W  c #D29038",
"Q  c #DA953A",
"!  c #DE9B3C",
"~  c #E09F3C",
"^  c #E2AB3E",
"/  c #E4B53D",
"(  c #E8B23F",
")  c #E6B83E",
"_  c #D69E42",
"`  c #C3B74E",
"'  c #DCBB43",
"]  c #C4BE56",
"[  c #E4B045",
"{  c #EBBD41",
"}  c #EDC341",
"|  c #EFC842",
" . c #F1CC43",
".. c #F2CC43",
"X. c #F1CB42",
"o. c #F1CE49",
"O. c #F5D64D",
"+. c #F7D84E",
"@. c #E9D25B",
"#. c #EAD35C",
"$. c #EBD35C",
"%. c #ECD55D",
"&. c #F4D859",
"*. c #F4DE59",
"=. c #FEE356",
"-. c #F3DB60",
";. c #FDEE63",
":. c #FEEF64",
">. c #FFF266",
",. c #FFF467",
"<. c #FFF76B",
"1. c #FFF86D",
"2. c #FFF96D",
"3. c #FFF96E",
"4. c #FFFA6E",
"5. c #FFFB6E",
"6. c #FFFA6F",
"7. c #FFFC6F",
/* pixels */
"                X X . . . . . . . . . . . . X X                 ",
"                + % , e r t t t t t t r e , $ +                 ",
"            . + : y G L ` ] ] ] ] ] ] ` L G y : + .             ",
"            - 2 p V ' =.,.7.7.5.5.5.7.,.=.' V p 2 -             ",
"        . $ 7 x K ' *.>.<.5.5.5.5.5.5.<.>.*.' K x 7 - .         ",
"        $ 5 c R ) +.:.5.5.5.5.5.5.5.5.5.5.:.+.) R c 5 $         ",
"    . $ 7 c E ) } O.;.5.5.5.5.5.5.5.5.5.5.;.O.} ) E c 7 $ .     ",
"    - 5 c R ) ..X.o.&.&.%.#.#.$.$.$.#.%.&.&.o.X...) R c 5 -     ",
"X - 8 c E ) } X.X.} [ _ U H J J J J H U _ [ } X.X.} ) E c 8 - X ",
"X : g P / ..X.} { ^ T S N l g d d g l N S T ^ { } X.../ P g : X ",
". > b Q { ....{ ^ T C N m j 7 1 1 7 j m N C T ^ { ....{ Q b > X ",
". 2 Z ~ { } } ^ T S N z j q < & & < q j z N S T ^ } } { ~ Z 2 . ",
". 2 Z ~ { } ^ T C N m j 7 < * & & * < 7 j m N C T ^ } { ~ Z 2 . ",
". 2 Z ! ( ^ W F N z j q < * 1 4 4 1 * < q j z N F W ^ ( ! Z 2 . ",
". 2 Z Q ! W C N m j 7 < * < w j j w < * < 7 j m N C W ! Q Z 2 . ",
". 2 A T I S n k j q < * < 6 i f f i 6 < * < q j k n S I T A 2 . ",
". 2 A Y S m k i 6 < * 1 w i 3 ; ; 3 i w 1 * < 7 w k m C Y A 2 . ",
". 2 b F m k g 0 1 = = 6 k f ; . . ; f j 6 = = 1 0 g k m F b 2 . ",
"X : g N k g f w 6 4 4 9 k f ; . . ; f k 9 4 4 7 w f g k N g : X ",
"X ; i k g s f s i 9 8 9 g s 4 ; ; 3 i g 9 8 9 i s f s g k i ; X ",
"X - 9 g f f f g j g 9 8 9 u i f f s u 9 7 9 g j g f s g g 9 - X ",
"X $ 6 w s f f g k k f u 8 9 g l k g 9 8 u f j j g f f s w 6 $ X ",
"X + = 6 w f f f g k n c u 7 9 u u 9 7 u c b f u i f f w 6 * + X ",
"o O @ = 7 w s s i f b b f u 8 6 6 8 u f b c u 8 q i q 7 = @ O o ",
"    O @ = 6 w s 0 9 u f b c u 6 6 u c n f u 8 8 8 8 4 = # O     ",
"    X O @ = 7 9 8 6 6 u c n h a a h n c u 6 7 6 6 1 * @ O X     ",
"        O # = 4 6 7 7 8 u h B D D B h u 8 7 8 6 3 * @ O         ",
"        X O @ * 3 6 7 7 6 i M D D M i 6 7 7 6 1 * # O o         ",
"            O @ * 1 6 8 7 9 i f f i 9 8 8 6 1 * @ O             ",
"            X O # * 2 3 3 3 3 3 3 3 3 3 3 2 * @ O X             ",
"                O O # # # # # # # # # # # # O O                 ",
"                o X X X X X X X X X X X X X o o                 "
};
