/* XPM */
static char *b5e8c87d7fe54499e34376ac0799962eaqdMfPZ2jl1elAwZ[] = {
/* columns rows colors chars-per-pixel */
"16 27 9 1 ",
"  c None",
". c #482E1D",
"X c #5B3D3F",
"o c #AA272C",
"O c #CA3537",
"+ c #DFB25B",
"@ c #FF9F89",
"# c #FFEEC8",
"$ c #FFFFF2",
/* pixels */
"                ",
"                ",
"       $$       ",
"      $  $      ",
"         $      ",
"        $       ",
"      $$$$      ",
"     $$$$$$     ",
"    $$$$$$$$    ",
"    $$$$$$$$    ",
"    $$$$$$$$    ",
"   $$$X$@X$$$   ",
"   $$$X@@X$$$   ",
"   $$$####$$$   ",
"  $$$$o..o$$$$  ",
"  $$$OOooO$$$$  ",
" $$$$OOOOOO$$$$ ",
" $$$ooO++Ooo$$$ ",
" $$$ooo..ooo$$$ ",
"  $$ooo..ooo$$  ",
"   oooo++oooo   ",
"   ooo....ooo   ",
"    oo....oo    ",
"        ..      ",
"         .      ",
"                ",
"                "
};
