/* XPM */
static char *_76344455eda4ef5f3b94f876d5efcadYcea8hAAopx45hXF[] = {
/* columns rows colors chars-per-pixel */
"14 24 9 1 ",
"  c None",
". c #482E1D",
"X c #5B3D3F",
"o c #AA272C",
"O c #CA3537",
"+ c #DFB25B",
"@ c #FF9F89",
"# c #FFEEC8",
"$ c #FFFFF2",
/* pixels */
"              ",
"      $$      ",
"     $  $     ",
"       $      ",
"     $$$$     ",
"    $$$$$$    ",
"    $$$$$$    ",
"   $$$$$$$$   ",
"   $$$$$$$$   ",
"   $$X@$X$$   ",
"  $$$X@@X$$$  ",
"  $$$####$$$  ",
"  $$$OooO$$$  ",
" $$$$OOOO$$$$ ",
" $$$OO++OO$$$ ",
" $$$oO..Oo$$$ ",
" $$ooo..ooo$$ ",
"  $ooo..ooo$  ",
"  oooo++oooo  ",
"  oooo..oooo  ",
"   oo....oo   ",
"    ..  ..    ",
"    .    .    ",
"              "
};
