/* XPM */
static char *d59f1dea92504acffb49dbd28933c872tkDCzl9sZnD4RLYE[] = {
/* columns rows colors chars-per-pixel */
"20 25 9 1 ",
"  c None",
". c #482E1D",
"X c #5B3D3F",
"o c #AA272C",
"O c #CA3537",
"+ c #DFB25B",
"@ c #FF9F89",
"# c #FFEEC8",
"$ c #FFFFF2",
/* pixels */
"                    ",
"         $$         ",
"        $  $        ",
"           $        ",
"          $         ",
"        $$$$        ",
"       $$$$$$       ",
"       $$$$$$       ",
"      $$$$$$$$      ",
"      $$$$$$$$      ",
"     $$$X$@X$$$     ",
"     $$$X@@X$$$     ",
"     $$$####$$$     ",
"    $$$$o..o$$$$    ",
"    $$$OOooOO$$$    ",
"    $$$OOOOOO$$$    ",
"   $$$$oO++Oo$$$$   ",
"   $$$ooo..ooo$$$   ",
"    $$ooo..ooo$$    ",
"     oooo++oooo     ",
"     oooo..oooo     ",
"      oo....oo      ",
"        ...         ",
"         .          ",
"                    "
};
