/* XPM */
static char *e3891d2ca163447f96a0bed57296ce13ZcgnfkoIrh6gzbsi[] = {
/* columns rows colors chars-per-pixel */
"13 25 9 1 ",
"  c None",
". c #482E1D",
"X c #5B3D3F",
"o c #AA272C",
"O c #CA3537",
"+ c #DFB25B",
"@ c #FF9F89",
"# c #FFEEC8",
"$ c #FFFFF2",
/* pixels */
"             ",
"    $$       ",
"   $  $      ",
"   $         ",
"    $        ",
"   $$$$      ",
"  $$$$$$     ",
" $$$$$$$     ",
" $$$$$$$$    ",
" $$$$$$$$    ",
" $@$X$$$$    ",
" $@@X@$$$$   ",
" $###@$$$$   ",
" $o..o$$$$$  ",
" $OooOO$$$$  ",
" O++OOO$$$$$ ",
" oOOOooo$$$$ ",
" o..oooo$$$$ ",
" o...oooo$$  ",
" o+++ooooo   ",
" o...oooo    ",
"   ...oo     ",
"    ..       ",
"    .        ",
"             "
};
