/* XPM */
static char *f9d8aa98aebb47018c77a5ea6e2aa935GV15YJgGMFYThy1t[] = {
/* columns rows colors chars-per-pixel */
"14 24 9 1 ",
"  c None",
". c #482E1D",
"X c #5B3D3F",
"o c #AA272C",
"O c #CA3537",
"+ c #DFB25B",
"@ c #FF9F89",
"# c #FFEEC8",
"$ c #FFFFF2",
/* pixels */
"              ",
"    $$        ",
"   $  $       ",
"    $         ",
"   $$$$       ",
"  $$$$$$      ",
" $$$$$$$      ",
" $$$$$$$$     ",
" $$$$$$$$     ",
" $@$X$$$$     ",
" $@@X@$$$     ",
" $###@$$$$    ",
" $o..o$$$$    ",
" $++oO$$$$$   ",
" oOOOOO$$$$   ",
" ooOOoo$$$$$  ",
" o..oooo$$$$  ",
" o..ooooo$$   ",
" o+++ooooo    ",
"  ...oooo     ",
"   ...o       ",
"   . .        ",
"     .        ",
"              "
};
