/* XPM */
static char *_1c4ad39186c4cf4a395f921192f58b0GEtxps1FqYWeiHtl[] = {
/* columns rows colors chars-per-pixel */
"14 24 9 1 ",
"  c None",
". c #482E1D",
"X c #5B3D3F",
"o c #AA272C",
"O c #CA3537",
"+ c #DFB25B",
"@ c #FF9F89",
"# c #FFEEC8",
"$ c #FFFFF2",
/* pixels */
"              ",
"        $$    ",
"       $  $   ",
"         $    ",
"       $$$$   ",
"      $$$$$$  ",
"      $$$$$$$ ",
"     $$$$$$$$ ",
"     $$$$$$$$ ",
"     $$$$X$@$ ",
"     $$$@X@@$ ",
"    $$$$@###$ ",
"    $$$$o..o$ ",
"   $$$$$Oo++$ ",
"   $$$$OOOOOo ",
"  $$$$$ooOOoo ",
"  $$$$oooo..o ",
"   $$ooooo..o ",
"    ooooo+++o ",
"     oooo...  ",
"       o...   ",
"        . .   ",
"        .     ",
"              "
};
