/* XPM */
static char *ebd47106d24b4bddf01057221ce499f8wsqPB7zIGRxeBwkX[] = {
/* columns rows colors chars-per-pixel */
"13 25 9 1 ",
"  c None",
". c #482E1D",
"X c #5B3D3F",
"o c #AA272C",
"O c #CA3537",
"+ c #DFB25B",
"@ c #FF9F89",
"# c #FFEEC8",
"$ c #FFFFF2",
/* pixels */
"             ",
"       $$    ",
"      $  $   ",
"         $   ",
"        $    ",
"      $$$$   ",
"     $$$$$$  ",
"     $$$$$$$ ",
"    $$$$$$$$ ",
"    $$$$$$$$ ",
"    $$$$X$@$ ",
"   $$$$@X@@$ ",
"   $$$$@###$ ",
"  $$$$$o..o$ ",
"  $$$$OOooO$ ",
" $$$$$OOO++O ",
" $$$$oooOOOo ",
" $$$$oooo..o ",
"  $$oooo...o ",
"   ooooo+++o ",
"    oooo...o ",
"     oo...   ",
"       ..    ",
"        .    ",
"             "
};
