/* XPM */
static char *e7800b743f23490cd66859e32e79a3675zTKdMA35GQF74Nr[] = {
/* columns rows colors chars-per-pixel */
"32 32 12 1 ",
"  c None",
". c gray9",
"X c #373737",
"o c #585858",
"O c #725545",
"+ c #93674D",
"@ c #BC8B4D",
"# c #D3A061",
"$ c #FACE73",
"% c #BBBDC0",
"& c #CECECE",
"* c #F4F4F4",
/* pixels */
" X X X X  X X X  X X X  X X X X ",
"X*X*X*X*XX*X*X*XX*X*X*XX*X*X*X*X",
".&o&o&o&o&&o&o&..&o&o&&o&o&o&o&.",
".&o&o&o&o&oo&o&..&o&oo&o&o&o&o&.",
".#++#+#+#+#+#+#..#+#+#+#+#+#++#.",
"X*+@#@#@#@#@#+*XX*+#@#@#@#@#@+*X",
".&+@#@#@#@#@#+&..&+#@#@#@#@#@+&.",
".&+@#@#@#@#@#+&..&+#@#@#@#@#@+&.",
".+O*#@#@#@#@#O+XX+O#@#@#@#@#*O+.",
"X*O&O*+*++*+*O*..*O*+*++*+*O&O*X",
".&o&o&o&oo&o%o&..&o%o&oo&o&o&o&.",
".&o$o&o&&o&o$o&..&o$o&o&&o&o$o&.",
".#O$O#OO$+#O$O#..#O$O#+$OO#O$O#.",
".#+$+#O+$$#+$+#..#+$+#$$+O#+$+#.",
".#+$+#O+#$#+$+#..#+$+#$#+O#+$+#.",
".#+#+#O+O$#+#+#..#+#+#$O+O#+#+#.",
" X X X X  X X X  XOXOXOXOOXOXOX ",
"X*X*X*X*XX*X*X*XX*X*X*X*XX*X*X*X",
".&o&o&o&o&&o&o&..&o&o&o&o&&o&o&.",
".&o&o&o&o&oo&o&..&o&o&o&o&oo&o&.",
".#++#+#+#+#+#+#..#++#+#+#+#+#+#.",
"X*+@#@#@#@#@#+*XX*+@#@#@#@#@#+*X",
".&+@#@#@#@#@#+&..&+@#@#@#@#@#+&.",
".&+@#@#@#@#@#+&..&+@#@#@#@#@#+&.",
".+O*#@#@#@#@#O+X.+O*#@#@#@#@#O+X",
"X*O&O*+*++*+*O*.X*O&O*+*++*+*O*.",
".&o&o&o&oo&o%o&..&o&o&o&oo&o%o&.",
".&o$o&o&&o&o$o&..&o$o&o&&o&o$o&.",
".#O$O#OO$+#O$O#..#O$O#OO$+#O$O#.",
".X*O+#O+$$#+O*X..#+$+#O+$$#+$+#.",
"..%O########O%...#+$+#O+#$#+$+#.",
"..%O+@@@@@@+O%...#+#+#O+O$#+#+#."
};
